<svg width="16" height="12" viewBox="0 0 16 12" fill="none" xmlns="http://www.w3.org/2000/svg">
<g clip-path="url(#clip0)">
<path d="M6.044 0.613486C6.24296 0.613486 6.4113 0.689972 6.54904 0.84305C6.68678 0.996129 6.75565 1.16444 6.75565 1.34809C6.75565 1.50117 6.70974 1.62357 6.61791 1.7154L2.92191 5.38844L14.515 5.38844C14.6833 5.38844 14.821 5.44201 14.9282 5.54914C15.0353 5.67157 15.0889 5.83227 15.0889 6.03123C15.0889 6.21488 15.0353 6.37557 14.9282 6.51331C14.821 6.65105 14.6833 6.71992 14.515 6.71992L2.92191 6.71992L6.61791 10.37C6.70974 10.4771 6.75565 10.5996 6.75565 10.7373C6.75565 10.9363 6.68678 11.1046 6.54904 11.2424C6.39599 11.3954 6.22765 11.4719 6.044 11.4719C5.90626 11.4719 5.77617 11.4184 5.65374 11.3112L0.855824 6.53627C0.687511 6.35262 0.603302 6.18427 0.603302 6.03123C0.603302 5.89349 0.687511 5.73279 0.855824 5.54914L5.65374 0.774181C5.76087 0.667016 5.89095 0.613486 6.044 0.613486Z" fill="white"/>
</g>
<defs>
<clipPath id="clip0">
<rect width="15.6522" height="11.4783" fill="white" transform="translate(15.6523 12) rotate(-180)"/>
</clipPath>
</defs>
</svg>
