<svg width="16" height="12" viewBox="0 0 16 12" fill="none" xmlns="http://www.w3.org/2000/svg">
<g clip-path="url(#clip0)">
<path d="M9.60835 11.3865C9.40939 11.3865 9.24104 11.31 9.1033 11.1569C8.96556 11.0039 8.89669 10.8356 8.89669 10.6519C8.89669 10.4988 8.94261 10.3764 9.03443 10.2846L12.7304 6.61156L1.13739 6.61156C0.969042 6.61156 0.831303 6.55799 0.724172 6.45086C0.617041 6.32843 0.563477 6.16773 0.563477 5.96877C0.563477 5.78512 0.617041 5.62443 0.724172 5.48669C0.831303 5.34895 0.969042 5.28008 1.13739 5.28008L12.7304 5.28008L9.03443 1.62999C8.94261 1.52286 8.89669 1.40043 8.89669 1.26269C8.89669 1.06373 8.96556 0.895381 9.1033 0.757642C9.25635 0.604599 9.42469 0.528076 9.60835 0.528076C9.74609 0.528076 9.87618 0.581642 9.99861 0.688772L14.7965 5.46373C14.9648 5.64738 15.049 5.81573 15.049 5.96877C15.049 6.10651 14.9648 6.26721 14.7965 6.45086L9.99861 11.2258C9.89147 11.333 9.76139 11.3865 9.60835 11.3865Z" fill="#ABABAB"/>
</g>
<defs>
<clipPath id="clip0">
<rect width="15.6522" height="11.4783" fill="#ABABAB"/>
</clipPath>
</defs>
</svg>
