<svg width="34" height="34" viewBox="0 0 34 34" fill="none" xmlns="http://www.w3.org/2000/svg">
<g clip-path="url(#clip0)">
<path d="M29.1708 4.82924C26.0564 1.71489 21.9167 0 17.5121 0C17.5118 0 17.5108 0 17.5105 0C15.3321 0.000259399 13.2091 0.422043 11.2011 1.25394C9.19286 2.08583 7.39367 3.28867 5.85309 4.82924C2.739 7.94333 1.02411 12.0839 1.02411 16.4879C1.02411 19.1144 1.65783 21.7244 2.85859 24.05L0.0871621 31.9673C-0.108166 32.5258 0.0300942 33.1328 0.448765 33.5512C0.741627 33.8444 1.12709 34 1.52346 34C1.69336 34 1.86509 33.9715 2.03266 33.9128L9.95005 31.1417C12.2756 32.3424 14.8856 32.9762 17.5121 32.9762C21.9161 32.9762 26.0564 31.261 29.1708 28.1469C32.2849 25.0328 34 20.8923 34 16.4882C34 12.0839 32.2851 7.94333 29.1708 4.82924ZM27.7607 26.7368C25.0232 29.4745 21.3833 30.9819 17.5121 30.9819C15.1437 30.9819 12.791 30.3962 10.708 29.2875C10.3303 29.0867 9.8839 29.0522 9.48313 29.1926L2.28998 31.71L4.80771 24.5169C4.94805 24.1156 4.91329 23.6692 4.71251 23.2917C3.6041 21.2093 3.01812 18.8565 3.01812 16.4879C3.01812 12.6167 4.52575 8.97678 7.26319 6.23933C10.0004 3.50215 13.6397 1.99452 17.5108 1.994H17.5121C21.3836 1.994 25.0232 3.50163 27.7607 6.23933C30.4984 8.97678 32.006 12.6164 32.006 16.4879C32.006 20.3595 30.4984 23.9994 27.7607 26.7368Z" fill="black"/>
<path d="M23.6399 17.9609C22.8815 17.2024 21.6472 17.2024 20.8888 17.9609L20.0592 18.7905C17.9993 17.6681 16.3324 16.0012 15.2097 13.9413L16.0393 13.1117C16.798 12.3532 16.798 11.119 16.0393 10.3605L13.8038 8.12502C13.0453 7.36653 11.8111 7.36653 11.0526 8.12502L9.26429 9.91331C8.23992 10.9377 8.18882 12.6987 9.12032 14.8723C9.92913 16.7594 11.4093 18.8335 13.2881 20.7124C15.1669 22.5912 17.2411 24.0713 19.1282 24.8801C20.1609 25.3227 21.1002 25.5434 21.9118 25.5434C22.8086 25.5434 23.5494 25.2739 24.0872 24.7362L25.8755 22.9476V22.9479C26.243 22.5803 26.4454 22.0919 26.4454 21.5723C26.4454 21.0524 26.243 20.564 25.8755 20.1967L23.6399 17.9609ZM22.6771 23.3261C22.3847 23.6184 21.4856 23.7209 19.9139 23.0475C18.2543 22.3362 16.4019 21.006 14.6982 19.3023C12.9945 17.5985 11.6645 15.7464 10.9532 14.0868C10.2796 12.5151 10.382 11.6158 10.6744 11.3234L12.4284 9.56935L14.5949 11.7361L13.5566 12.7747C13.0871 13.2443 12.9737 13.9563 13.2749 14.5467C14.6401 17.2237 16.7768 19.3604 19.4538 20.7256C20.0444 21.0268 20.7565 20.9137 21.226 20.4439L22.2644 19.4055L24.4311 21.5723L22.6771 23.3261Z" fill="black"/>
</g>
<defs>
<clipPath id="clip0">
<rect width="34" height="34" fill="white"/>
</clipPath>
</defs>
</svg>
