<svg width="34" height="34" viewBox="0 0 34 34" fill="none" xmlns="http://www.w3.org/2000/svg">
<path d="M0.73991 25.3216C1.43408 27.7837 3.55766 28.2342 3.69933 28.3206C7.19424 29.2726 26.7839 29.2755 30.3312 28.3206C32.7608 27.618 33.2071 25.4632 33.2907 25.3216C34.2157 20.4001 34.2767 13.984 33.2482 8.39947L33.2907 8.67714C32.5965 6.21497 30.4729 5.76447 30.3312 5.67806C26.8831 4.74164 7.24241 4.70622 3.69933 5.67806C1.26974 6.38214 0.823494 8.53548 0.73991 8.67714C-0.25034 13.8494 -0.299923 19.7838 0.73991 25.3216ZM13.6117 22.1723V11.8406L22.4886 17.0142L13.6117 22.1723Z" fill="#E53935"/>
</svg>
