<svg width="34" height="34" viewBox="0 0 34 34" fill="none" xmlns="http://www.w3.org/2000/svg">
<path d="M34 6.27038C32.7356 6.825 31.3884 7.19263 29.9837 7.37112C31.4287 6.50837 32.5316 5.15262 33.0501 3.5185C31.7029 4.32175 30.2154 4.88913 28.6301 5.20575C27.3509 3.84363 25.5276 3 23.5386 3C19.6796 3 16.5729 6.13225 16.5729 9.97213C16.5729 10.5246 16.6196 11.0559 16.7344 11.5616C10.9395 11.279 5.81187 8.50163 2.36725 4.27075C1.76587 5.31413 1.41313 6.50838 1.41313 7.794C1.41313 10.208 2.65625 12.3479 4.50925 13.5868C3.38937 13.5655 2.29075 13.2404 1.36 12.7283C1.36 12.7495 1.36 12.7771 1.36 12.8047C1.36 16.192 3.77612 19.0055 6.9445 19.6536C6.37712 19.8088 5.75875 19.8831 5.117 19.8831C4.67075 19.8831 4.22025 19.8576 3.79737 19.7641C4.7005 22.5245 7.26325 24.5539 10.3105 24.6197C7.939 26.4749 4.92788 27.5926 1.66813 27.5926C1.0965 27.5926 0.54825 27.5671 0 27.497C3.08762 29.4881 6.74688 30.625 10.693 30.625C23.5195 30.625 30.532 20 30.532 10.7902C30.532 10.4821 30.5214 10.1846 30.5065 9.88925C31.8899 8.9075 33.0522 7.68138 34 6.27038Z" fill="#03A9F4"/>
</svg>
