<svg width="41" height="41" viewBox="0 0 41 41" fill="none" xmlns="http://www.w3.org/2000/svg">
<path d="M34.5251 14.0251C34.5251 6.27924 28.2459 0 20.5 0C12.7542 0 6.47496 6.27924 6.47496 14.0251C4.47249 14.2744 2.5791 15.5834 2.5791 18.6222V25.9464C2.5791 29.3748 4.97895 30.6214 7.25413 30.6214H9.51373C9.94402 30.6214 10.2929 30.2726 10.2929 29.8423V14.7575C10.2929 14.3272 9.94402 13.9783 9.51373 13.9783H8.0333C8.0333 7.09319 13.6149 1.51159 20.5 1.51159C27.3852 1.51159 32.9668 7.09319 32.9668 13.9783H31.4864C31.0561 13.9783 30.7072 14.3272 30.7072 14.7575V29.8189C30.7072 30.2492 31.0561 30.5981 31.4864 30.5981H32.9668C32.7486 35.951 30.1774 37.2054 25.0426 37.4314V36.9093C25.0426 36.0487 24.345 35.351 23.4843 35.351H18.5833C17.7226 35.351 17.0249 36.0487 17.0249 36.9093V39.4417C17.0249 40.3023 17.7226 41 18.5833 41H23.4999C24.3605 41 25.0582 40.3023 25.0582 39.4417V38.9897C29.9981 38.7638 34.268 37.7431 34.5251 30.5513C36.5276 30.302 38.421 28.993 38.421 25.9542V18.63C38.421 15.5756 36.5354 14.2744 34.5251 14.0251ZM8.73456 15.4821V29.0397H7.21517C6.062 29.0397 4.09849 28.6346 4.09849 25.923V18.5988C4.09849 15.9107 6.03862 15.4821 7.21517 15.4821H8.73456ZM23.4999 38.2651V39.4494H18.5833V36.9171H23.4999V38.2651ZM36.8626 25.9464C36.8626 28.6345 34.9225 29.0631 33.746 29.0631H32.2655V15.5367H33.7849C34.9381 15.5367 36.9016 15.9418 36.9016 18.6534L36.8626 25.9464Z" fill="black"/>
</svg>
