<svg width="36" height="24" viewBox="0 0 36 24" fill="none" xmlns="http://www.w3.org/2000/svg">
<path d="M34.1538 0H1.8462C0.830742 0 0 0.830742 0 1.84612V22.1539C0 23.1692 0.830742 24 1.8462 24H34.1539C35.1692 24 36.0001 23.1693 36.0001 22.1539V1.84612C36 0.830742 35.1693 0 34.1538 0ZM33.461 1.38452L19.062 12.1847C18.8031 12.3817 18.4057 12.5049 17.9999 12.5031C17.5942 12.5049 17.1969 12.3817 16.9379 12.1847L2.53891 1.38452H33.461ZM25.7695 12.8973L33.6157 22.5896C33.6236 22.5994 33.6332 22.6067 33.6416 22.6155H2.35842C2.36672 22.6063 2.37642 22.5994 2.3843 22.5896L10.2305 12.8973C10.4709 12.6001 10.4253 12.1643 10.1275 11.9234C9.83032 11.683 9.39459 11.7285 9.15413 12.0258L1.38459 21.6236V2.24993L16.1076 13.2922C16.661 13.7044 17.3344 13.8858 17.9999 13.8876C18.6645 13.8862 19.3383 13.7048 19.8921 13.2922L34.6151 2.24993V21.6234L26.8458 12.0258C26.6053 11.7286 26.1692 11.6829 25.8724 11.9234C25.5747 12.1638 25.529 12.6001 25.7695 12.8973Z" fill="black"/>
</svg>
