<svg width="18" height="18" viewBox="0 0 18 18" fill="none" xmlns="http://www.w3.org/2000/svg">
<g clip-path="url(#clip0)">
<path d="M17.3892 8.31502L16.1635 7.78455L15.1227 5.75913C14.8414 5.20455 14.2707 4.85895 13.6478 4.86296H11.8555V4.35661C11.8555 3.44035 11.1241 2.69287 10.2078 2.69287H1.63998C0.723716 2.69287 0.000351069 3.44437 0.000351069 4.35661V12.1127C-0.00768631 12.6713 0.438388 13.1294 0.996986 13.1374C1.00101 13.1374 1.00502 13.1374 1.01306 13.1374H1.22605C1.22605 13.1776 1.22203 13.1937 1.22203 13.2178C1.21801 14.3672 2.14633 15.3035 3.29568 15.3075C4.44502 15.3116 5.38138 14.3832 5.3854 13.2339C5.3854 13.2259 5.3854 13.2218 5.3854 13.2138C5.3854 13.1857 5.3854 13.1736 5.38138 13.1334H12.3056C12.3056 13.1736 12.3056 13.1897 12.3056 13.2138C12.3016 14.3631 13.2299 15.2995 14.3792 15.3035C15.5286 15.3075 16.4649 14.3792 16.4689 13.2299C16.4689 13.2218 16.4689 13.2178 16.4689 13.2098C16.4689 13.1817 16.4689 13.1696 16.4689 13.1294H16.9874C17.546 13.1294 18.0001 12.6753 18.0001 12.1167C18.0001 12.1127 18.0001 12.1087 18.0001 12.1006V9.24736C18.0081 8.85352 17.767 8.47979 17.3892 8.31502ZM3.30773 14.5078C2.60044 14.5078 2.02979 13.9372 2.02979 13.2299C2.02979 12.5226 2.60044 11.9519 3.30773 11.9519C4.01502 11.9519 4.58568 12.5226 4.58568 13.2299C4.58568 13.9332 4.011 14.5078 3.30773 14.5078ZM11.0518 12.3417H5.1925C4.85493 11.6063 4.11549 11.1361 3.30773 11.1402C2.49596 11.1361 1.76054 11.6023 1.42297 12.3417H1.01306C0.888482 12.3417 0.804089 12.2453 0.804089 12.1207V10.0511H11.0518V12.3417ZM11.0518 4.36063V9.24736H0.804089V4.36063C0.804089 3.89044 1.16979 3.50063 1.63998 3.50063H10.2078C10.678 3.50465 11.0558 3.89044 11.0518 4.35661V4.36063ZM11.8555 5.67072H13.6478C13.9653 5.6667 14.2627 5.83951 14.4114 6.12483L15.2151 7.68007H11.8555V5.67072ZM14.3913 14.5078C13.684 14.5078 13.1133 13.9372 13.1133 13.2299C13.1133 12.5226 13.684 11.9519 14.3913 11.9519C15.0986 11.9519 15.6692 12.5226 15.6692 13.2299C15.6692 13.9332 15.0986 14.5078 14.3913 14.5078ZM17.2003 12.1207C17.2003 12.2453 17.116 12.3417 16.9914 12.3417H16.2761C15.7898 11.3009 14.552 10.8508 13.5112 11.3371C13.0691 11.542 12.7115 11.8997 12.5065 12.3417H11.8555V8.48381H15.7938L17.0718 9.04642C17.1521 9.08661 17.2044 9.17502 17.2003 9.26343V12.1207Z" fill="black"/>
</g>
<defs>
<clipPath id="clip0">
<rect width="18" height="18" fill="white"/>
</clipPath>
</defs>
</svg>
