<svg width="15" height="15" viewBox="0 0 15 15" fill="none" xmlns="http://www.w3.org/2000/svg">
<path d="M9.15407 6.49028V3.92774C9.15407 2.98137 8.65928 2.1012 7.76083 1.44935C6.90489 0.82834 5.77421 0.486328 4.57705 0.486328C3.37989 0.486328 2.24918 0.82834 1.39327 1.44935C0.494795 2.1012 0 2.98137 0 3.92774V11.1531C0 13.0061 1.50744 14.5135 3.36035 14.5135H15V6.49028H9.15407ZM1.90939 2.16073C2.61645 1.64774 3.56382 1.36523 4.57705 1.36523C5.59028 1.36523 6.53766 1.64774 7.24471 2.16073C7.90922 2.64287 8.2752 3.27041 8.2752 3.92774C8.2752 4.58508 7.90922 5.21262 7.24471 5.69476C6.53766 6.20774 5.59028 6.49025 4.57705 6.49025C3.56382 6.49025 2.61645 6.20774 1.90939 5.69476C1.24488 5.21262 0.878906 4.58511 0.878906 3.92774C0.878906 3.27038 1.24488 2.64287 1.90939 2.16073ZM8.27517 5.96382V6.49028H7.64021C7.68094 6.46277 7.72128 6.43488 7.76083 6.40617C7.95064 6.26845 8.12224 6.12041 8.27517 5.96382ZM14.1211 13.6346H12.6465V10.857H11.7676V13.6346H10.293V10.857H9.41408V13.6346H7.93945V9.59024H7.06055V13.6346H5.58595V10.857H4.70704V13.6346H3.36035C3.31746 13.6346 3.2748 13.6335 3.23241 13.6313V10.857H2.35351V13.4203C1.48567 13.0334 0.878906 12.1631 0.878906 11.1531V5.96382C1.03184 6.12041 1.20343 6.26845 1.39327 6.40617C2.24921 7.02718 3.37989 7.36919 4.57705 7.36919H14.1211V13.6346Z" fill="#575757"/>
<path d="M6.04775 2.6923C5.6494 2.40328 5.12716 2.24414 4.57714 2.24414C4.02712 2.24414 3.50484 2.40331 3.10649 2.6923C2.67202 3.0075 2.42285 3.45782 2.42285 3.92774C2.42285 4.39767 2.67205 4.84799 3.10649 5.16319C3.50484 5.45221 4.02712 5.61135 4.57714 5.61135C5.12716 5.61135 5.64943 5.45218 6.04775 5.16319C6.48223 4.84796 6.7314 4.39767 6.7314 3.92774C6.7314 3.45782 6.48223 3.0075 6.04775 2.6923ZM4.57714 4.73247C3.88582 4.73247 3.30176 4.36395 3.30176 3.92774C3.30176 3.49154 3.88582 3.12305 4.57714 3.12305C5.26846 3.12305 5.85249 3.49157 5.85249 3.92774C5.85249 4.36395 5.26846 4.73247 4.57714 4.73247Z" fill="#575757"/>
</svg>
