<svg width="21" height="22" viewBox="0 0 21 22" fill="none" xmlns="http://www.w3.org/2000/svg">
<g clip-path="url(#clip0)">
<path d="M13.1954 8.0874C12.9289 8.0874 12.7129 8.30341 12.7129 8.56993V17.6896C12.7129 17.956 12.9289 18.1721 13.1954 18.1721C13.4619 18.1721 13.6779 17.956 13.6779 17.6896V8.56993C13.6779 8.30341 13.4619 8.0874 13.1954 8.0874Z" fill="#626262"/>
<path d="M7.50205 8.0874C7.23554 8.0874 7.01953 8.30341 7.01953 8.56993V17.6896C7.01953 17.956 7.23554 18.1721 7.50205 18.1721C7.76857 18.1721 7.98458 17.956 7.98458 17.6896V8.56993C7.98458 8.30341 7.76857 8.0874 7.50205 8.0874Z" fill="#626262"/>
<path d="M3.35189 6.7565V18.6448C3.35189 19.3475 3.60955 20.0074 4.05965 20.4809C4.50768 20.9557 5.13119 21.2252 5.78373 21.2263H14.9132C15.5659 21.2252 16.1894 20.9557 16.6373 20.4809C17.0874 20.0074 17.345 19.3475 17.345 18.6448V6.7565C18.2398 6.51901 18.8196 5.65461 18.6999 4.7365C18.58 3.81858 17.798 3.13193 16.8721 3.13174H14.4017V2.52859C14.4045 2.02137 14.2039 1.53433 13.8449 1.17601C13.4858 0.817893 12.998 0.618475 12.4908 0.622622H8.20614C7.69892 0.618475 7.21112 0.817893 6.85206 1.17601C6.493 1.53433 6.29245 2.02137 6.29527 2.52859V3.13174H3.8248C2.89896 3.13193 2.11693 3.81858 1.99706 4.7365C1.87737 5.65461 2.45715 6.51901 3.35189 6.7565ZM14.9132 20.2613H5.78373C4.95873 20.2613 4.31693 19.5526 4.31693 18.6448V6.79891H16.38V18.6448C16.38 19.5526 15.7382 20.2613 14.9132 20.2613ZM7.26032 2.52859C7.25712 2.27733 7.35588 2.03551 7.53419 1.85814C7.71231 1.68078 7.9547 1.58333 8.20614 1.58767H12.4908C12.7422 1.58333 12.9846 1.68078 13.1627 1.85814C13.341 2.03532 13.4398 2.27733 13.4366 2.52859V3.13174H7.26032V2.52859ZM3.8248 4.09678H16.8721C17.3518 4.09678 17.7407 4.48563 17.7407 4.96532C17.7407 5.44502 17.3518 5.83386 16.8721 5.83386H3.8248C3.3451 5.83386 2.95626 5.44502 2.95626 4.96532C2.95626 4.48563 3.3451 4.09678 3.8248 4.09678Z" fill="#626262"/>
<path d="M10.3487 8.0874C10.0822 8.0874 9.86621 8.30341 9.86621 8.56993V17.6896C9.86621 17.956 10.0822 18.1721 10.3487 18.1721C10.6153 18.1721 10.8313 17.956 10.8313 17.6896V8.56993C10.8313 8.30341 10.6153 8.0874 10.3487 8.0874Z" fill="#626262"/>
</g>
<defs>
<clipPath id="clip0">
<rect x="0.0517578" y="0.622559" width="20.6038" height="20.6038" rx="2" fill="white"/>
</clipPath>
</defs>
</svg>
