<svg width="17" height="17" viewBox="0 0 17 17" fill="none" xmlns="http://www.w3.org/2000/svg">
<path d="M9.43917 8.50003L16.8055 1.13366C17.0649 0.874311 17.0649 0.453828 16.8055 0.194512C16.5462 -0.0648041 16.1257 -0.0648373 15.8664 0.194512L8.49999 7.56088L1.13366 0.194512C0.874311 -0.0648373 0.453828 -0.0648373 0.194512 0.194512C-0.0648041 0.453861 -0.0648373 0.874345 0.194512 1.13366L7.56084 8.49999L0.194512 15.8664C-0.0648373 16.1257 -0.0648373 16.5462 0.194512 16.8055C0.32417 16.9352 0.494136 17 0.664103 17C0.834069 17 1.004 16.9352 1.13369 16.8055L8.49999 9.43917L15.8663 16.8055C15.996 16.9352 16.1659 17 16.3359 17C16.5059 17 16.6758 16.9352 16.8055 16.8055C17.0649 16.5462 17.0649 16.1257 16.8055 15.8664L9.43917 8.50003Z" fill="white"/>
</svg>
