<svg width="23" height="26" viewBox="0 0 23 26" fill="none" xmlns="http://www.w3.org/2000/svg">
<path d="M21.8512 24.7975C21.998 24.6364 22.0686 24.4214 22.0458 24.2059L22.0458 24.2059L20.2017 6.83524L20.152 6.84052L20.2017 6.83523C20.1602 6.44574 19.8285 6.15074 19.4337 6.15074H16.0176V5.41907C16.0176 2.95436 13.9905 0.95 11.5001 0.95C9.00949 0.95 6.98235 2.95435 6.98235 5.41907V6.15074H3.56627C3.17145 6.15074 2.83975 6.44574 2.79831 6.83523L2.79831 6.83524L0.9542 24.2059L0.954198 24.2059C0.931398 24.4214 1.0022 24.6364 1.14852 24.7974L1.14856 24.7975C1.29508 24.9583 1.50364 25.05 1.72216 25.05H21.2776C21.4963 25.05 21.7049 24.9583 21.8512 24.7975ZM21.8512 24.7975L21.8143 24.7638M21.8512 24.7975C21.8513 24.7975 21.8513 24.7975 21.8513 24.7974L21.8143 24.7638M21.8143 24.7638C21.6775 24.9141 21.4824 25 21.2776 25H1.72216C1.51761 25 1.3225 24.9141 1.18552 24.7638L21.9961 24.2112C22.0174 24.4124 21.9515 24.6133 21.8143 24.7638ZM8.52662 5.41907C8.52662 3.79833 9.86005 2.47859 11.5001 2.47859C13.1399 2.47859 14.4734 3.79833 14.4734 5.41907V6.15074H8.52662V5.41907ZM18.7384 7.67933L20.4203 23.5214H2.57967L4.26155 7.67933H6.98235V9.20349C6.98235 9.62603 7.32865 9.96779 7.75449 9.96779C8.18032 9.96779 8.52662 9.62603 8.52662 9.20349V7.67933H14.4734V9.20349C14.4734 9.62603 14.8197 9.96779 15.2455 9.96779C15.6713 9.96779 16.0176 9.62603 16.0176 9.20349V7.67933H18.7384Z" fill="#3D3D3D" stroke="#3D3D3D" stroke-width="0.1"/>
</svg>
